<svg xmlns="http://www.w3.org/2000/svg" width="1200" height="630" viewBox="0 0 1200 630">
  <rect width="1200" height="630" fill="#fff7e8"/>
  <circle cx="600" cy="250" r="210" fill="#fff3dd" stroke="#2b2340" stroke-width="8"/>
  <defs>
<symbol id="art-apple" viewBox="-8 -8 116 116"><g stroke="#2b2340" stroke-width="3.4" stroke-linejoin="round" stroke-linecap="round" style="--blink-delay:5s">
    <path d="M50 31C36 20 13 26 14 52C15 77 34 91 50 85C66 91 85 77 86 52C87 26 64 20 50 31Z" fill="#ff5a4e"/>
    <ellipse cx="31" cy="46" rx="5" ry="9" fill="#fff" stroke="none" opacity=".5" transform="rotate(20 31 46)"/>
    <path d="M50 32C50 24 51 18 55 11" fill="none"/>
    <path d="M54 21C60 9 76 7 83 11C79 23 64 28 54 21Z" fill="#52c26b"/>
    
    <g class="face" transform="translate(50 60) scale(1)" stroke="none">
    <g class="eyes"><ellipse cx="-7" cy="0" rx="2.7" ry="3.5" fill="#2b2340"/><ellipse cx="7" cy="0" rx="2.7" ry="3.5" fill="#2b2340"/>
    <circle cx="-6.2" cy="-1.3" r="0.9" fill="#fff"/><circle cx="7.8" cy="-1.3" r="0.9" fill="#fff"/></g>
    <path d="M-4.5 5.2Q0 9.8 4.5 5.2" fill="none" stroke="#2b2340" stroke-width="2.3" stroke-linecap="round"/>
    <ellipse cx="-12.5" cy="5" rx="3.8" ry="2.4" fill="#ff6f9f" opacity=".5"/>
    <ellipse cx="12.5" cy="5" rx="3.8" ry="2.4" fill="#ff6f9f" opacity=".5"/>
  </g></g></symbol>
<symbol id="art-blackcurrant" viewBox="-8 -8 116 116"><g stroke="#2b2340" stroke-width="3.4" stroke-linejoin="round" stroke-linecap="round" style="--blink-delay:6.4s">
    <path d="M26 10C40 16 54 26 66 40M40 22L38 42M54 30L58 48M48 40L44 63M62 50L64 70M52 60L50 83" fill="none" stroke="#3bb273" stroke-width="3"/>
    <path d="M24 12C18 2 32 -2 36 8C32 12 28 14 24 12Z" fill="#52c26b"/>
    <circle cx="38" cy="42" r="12" fill="#34307a"/><ellipse cx="34" cy="39" rx="2.5" ry="4" fill="#fff" stroke="none" opacity=".5" transform="rotate(20 34 39)"/><circle cx="58" cy="48" r="12" fill="#34307a"/><ellipse cx="54" cy="45" rx="2.5" ry="4" fill="#fff" stroke="none" opacity=".5" transform="rotate(20 54 45)"/><circle cx="44" cy="63" r="13" fill="#34307a"/><ellipse cx="40" cy="60" rx="2.5" ry="4" fill="#fff" stroke="none" opacity=".5" transform="rotate(20 40 60)"/><circle cx="64" cy="70" r="12" fill="#34307a"/><ellipse cx="60" cy="67" rx="2.5" ry="4" fill="#fff" stroke="none" opacity=".5" transform="rotate(20 60 67)"/><circle cx="50" cy="83" r="12" fill="#34307a"/><ellipse cx="46" cy="80" rx="2.5" ry="4" fill="#fff" stroke="none" opacity=".5" transform="rotate(20 46 80)"/>
    <g class="face" transform="translate(50 84) scale(0.55)" stroke="none">
    <g class="eyes"><ellipse cx="-7" cy="0" rx="2.7" ry="3.5" fill="#2b2340"/><ellipse cx="7" cy="0" rx="2.7" ry="3.5" fill="#2b2340"/>
    <circle cx="-6.2" cy="-1.3" r="0.9" fill="#fff"/><circle cx="7.8" cy="-1.3" r="0.9" fill="#fff"/></g>
    <path d="M-4.5 5.2Q0 9.8 4.5 5.2" fill="none" stroke="#2b2340" stroke-width="2.3" stroke-linecap="round"/>
    <ellipse cx="-12.5" cy="5" rx="3.8" ry="2.4" fill="#ff6f9f" opacity=".5"/>
    <ellipse cx="12.5" cy="5" rx="3.8" ry="2.4" fill="#ff6f9f" opacity=".5"/>
  </g></g></symbol>
<symbol id="art-carrots" viewBox="-8 -8 116 116"><g stroke="#2b2340" stroke-width="3.4" stroke-linejoin="round" stroke-linecap="round" style="--blink-delay:5s">
    <g fill="#3bb273"><path d="M47 30C37 22 29 12 31 3C41 7 47 17 50 28Z"/><path d="M50 30C48 18 50 8 57 2C61 12 57 22 53 30Z"/><path d="M53 31C61 21 71 15 78 15C74 25 63 31 55 33Z"/></g>
    <g transform="translate(50 0) scale(1 1) translate(-50 0)">
      <path d="M29 34C29 25 71 25 71 34C71 54 59 78 50 97C41 78 29 54 29 34Z" fill="#ff9a3c"/>
      <path d="M35 46h8M58 55h7M40 66h7M54 76h5" fill="none" stroke-width="2.3" opacity=".45"/>
    </g>
    <g class="face" transform="translate(50 46) scale(0.82)" stroke="none">
    <g class="eyes"><ellipse cx="-7" cy="0" rx="2.7" ry="3.5" fill="#2b2340"/><ellipse cx="7" cy="0" rx="2.7" ry="3.5" fill="#2b2340"/>
    <circle cx="-6.2" cy="-1.3" r="0.9" fill="#fff"/><circle cx="7.8" cy="-1.3" r="0.9" fill="#fff"/></g>
    <path d="M-4.5 5.2Q0 9.8 4.5 5.2" fill="none" stroke="#2b2340" stroke-width="2.3" stroke-linecap="round"/>
    <ellipse cx="-12.5" cy="5" rx="3.8" ry="2.4" fill="#ff6f9f" opacity=".5"/>
    <ellipse cx="12.5" cy="5" rx="3.8" ry="2.4" fill="#ff6f9f" opacity=".5"/>
  </g></g></symbol>
<symbol id="art-chestnut" viewBox="-8 -8 116 116"><g stroke="#2b2340" stroke-width="3.4" stroke-linejoin="round" stroke-linecap="round" style="--blink-delay:6.2s">
    <path d="M50 16C62 16 86 36 84 60C82 80 66 88 50 88C34 88 18 80 16 60C14 36 38 16 50 16Z" fill="#7a4a2c"/>
    <path d="M18 66C30 74 70 74 82 66C80 82 66 88 50 88C34 88 20 82 18 66Z" fill="#e9b87a"/>
    <path d="M48 17L50 8L52 17Z" fill="#e9b87a"/>
    <ellipse cx="34" cy="40" rx="5" ry="10" fill="#fff" stroke="none" opacity=".5" transform="rotate(30 34 40)"/>
    <g class="face" transform="translate(50 50) scale(0.85)" stroke="none">
    <g class="eyes"><ellipse cx="-7" cy="0" rx="2.7" ry="3.5" fill="#2b2340"/><ellipse cx="7" cy="0" rx="2.7" ry="3.5" fill="#2b2340"/>
    <circle cx="-6.2" cy="-1.3" r="0.9" fill="#fff"/><circle cx="7.8" cy="-1.3" r="0.9" fill="#fff"/></g>
    <path d="M-4.5 5.2Q0 9.8 4.5 5.2" fill="none" stroke="#2b2340" stroke-width="2.3" stroke-linecap="round"/>
    <ellipse cx="-12.5" cy="5" rx="3.8" ry="2.4" fill="#ff6f9f" opacity=".5"/>
    <ellipse cx="12.5" cy="5" rx="3.8" ry="2.4" fill="#ff6f9f" opacity=".5"/>
  </g></g></symbol>
<symbol id="art-crab-apple" viewBox="-8 -8 116 116"><g stroke="#2b2340" stroke-width="3.4" stroke-linejoin="round" stroke-linecap="round" style="--blink-delay:1.6s">
    <path d="M58 12C50 30 40 44 34 60M58 12C62 32 66 48 70 62" fill="none" stroke="#b0703f" stroke-width="3.2"/>
    <path d="M58 12C66 2 82 2 88 8C82 18 68 20 58 12Z" fill="#52c26b"/>
    <circle cx="33" cy="72" r="18" fill="#ff5a4e"/><ellipse cx="25" cy="66" rx="3.5" ry="6" fill="#fff" stroke="none" opacity=".5" transform="rotate(20 25 66)"/>
    <circle cx="70" cy="74" r="18" fill="#ffb627"/><ellipse cx="62" cy="68" rx="3.5" ry="6" fill="#fff" stroke="none" opacity=".5" transform="rotate(20 62 68)"/>
    <g class="face" transform="translate(33 75) scale(0.62)" stroke="none">
    <g class="eyes"><ellipse cx="-7" cy="0" rx="2.7" ry="3.5" fill="#2b2340"/><ellipse cx="7" cy="0" rx="2.7" ry="3.5" fill="#2b2340"/>
    <circle cx="-6.2" cy="-1.3" r="0.9" fill="#fff"/><circle cx="7.8" cy="-1.3" r="0.9" fill="#fff"/></g>
    <path d="M-4.5 5.2Q0 9.8 4.5 5.2" fill="none" stroke="#2b2340" stroke-width="2.3" stroke-linecap="round"/>
    <ellipse cx="-12.5" cy="5" rx="3.8" ry="2.4" fill="#ff6f9f" opacity=".5"/>
    <ellipse cx="12.5" cy="5" rx="3.8" ry="2.4" fill="#ff6f9f" opacity=".5"/>
  </g><g class="face" transform="translate(70 77) scale(0.62)" stroke="none">
    <g class="eyes"><ellipse cx="-7" cy="0" rx="2.7" ry="3.5" fill="#2b2340"/><ellipse cx="7" cy="0" rx="2.7" ry="3.5" fill="#2b2340"/>
    <circle cx="-6.2" cy="-1.3" r="0.9" fill="#fff"/><circle cx="7.8" cy="-1.3" r="0.9" fill="#fff"/></g>
    <path d="M-4.5 5.2Q0 9.8 4.5 5.2" fill="none" stroke="#2b2340" stroke-width="2.3" stroke-linecap="round"/>
    <ellipse cx="-12.5" cy="5" rx="3.8" ry="2.4" fill="#ff6f9f" opacity=".5"/>
    <ellipse cx="12.5" cy="5" rx="3.8" ry="2.4" fill="#ff6f9f" opacity=".5"/>
  </g></g></symbol>
<symbol id="art-fig" viewBox="-8 -8 116 116"><g stroke="#2b2340" stroke-width="3.4" stroke-linejoin="round" stroke-linecap="round" style="--blink-delay:2s">
    <path d="M50 14C57 14 58 24 60 30C77 40 85 56 81 70C77 84 64 91 50 91C36 91 23 84 19 70C15 56 23 40 40 30C42 24 43 14 50 14Z" fill="#8e4dd6"/>
    <path d="M50 30C46 50 46 70 50 88M40 34C32 50 32 72 40 86M60 34C68 50 68 72 60 86" fill="none" stroke-width="2" opacity=".35"/>
    <ellipse cx="33" cy="58" rx="5" ry="9" fill="#fff" stroke="none" opacity=".5" transform="rotate(20 33 58)"/>
    <path d="M48 15L50 7L52 15Z" fill="#3bb273"/>
    <g class="face" transform="translate(50 64) scale(1)" stroke="none">
    <g class="eyes"><ellipse cx="-7" cy="0" rx="2.7" ry="3.5" fill="#2b2340"/><ellipse cx="7" cy="0" rx="2.7" ry="3.5" fill="#2b2340"/>
    <circle cx="-6.2" cy="-1.3" r="0.9" fill="#fff"/><circle cx="7.8" cy="-1.3" r="0.9" fill="#fff"/></g>
    <path d="M-4.5 5.2Q0 9.8 4.5 5.2" fill="none" stroke="#2b2340" stroke-width="2.3" stroke-linecap="round"/>
    <ellipse cx="-12.5" cy="5" rx="3.8" ry="2.4" fill="#ff6f9f" opacity=".5"/>
    <ellipse cx="12.5" cy="5" rx="3.8" ry="2.4" fill="#ff6f9f" opacity=".5"/>
  </g></g></symbol>
</defs>
  <use href="#art-apple" x="150" y="180" width="130" height="130"/>
  <use href="#art-blackcurrant" x="310" y="180" width="130" height="130"/>
  <use href="#art-carrots" x="470" y="180" width="130" height="130"/>
  <use href="#art-chestnut" x="630" y="180" width="130" height="130"/>
  <use href="#art-crab-apple" x="790" y="180" width="130" height="130"/>
  <use href="#art-fig" x="950" y="180" width="130" height="130"/>
  <text x="600" y="500" text-anchor="middle" font-family="Nunito, sans-serif" font-size="54" font-weight="800" fill="#2b2340">The year-wheel</text>
  <text x="600" y="555" text-anchor="middle" font-family="Nunito, sans-serif" font-size="28" font-weight="700" fill="#625879">What's growing, month by month</text>
</svg>
